# xmcd
#
# Track frame offsets:
#       150
#       15256
#       29029
#       45493
#       61077
#       73225
#       89425
#       109393
#       123796
#       138549
#       154320
#
# Disc length: 2247 seconds
#
# Revision: 0
# Processed by: cddbd v1.5.2PL0 Copyright (c) Steve Scherf et al.
# Submitted via: WaveLab 6.11
#
DISCID=9508c50b
DTITLE=Giovanni DE SQimone and Luigi Della Corte - Napule e Nuje
DYEAR=2014
DGENRE=Chanson Napolitaine
TTITLE0=SCAPRICCIATIELLO
TTITLE1=MAMMETA  E TU
TTITLE2=CARMELA
TTITLE3='A CITTA ' E PULECENELLA
TTITLE4=GUAGLIONE
TTITLE5=TU VUO' FA' L'AMERICANO
TTITLE6=LUNA ROSSA
TTITLE7=COME FACETTE MAMMETA
TTITLE8=O SARRACINO
TTITLE9=FUNICULI FUNICULA
TTITLE10='O SOLE MIO
EXTD=
EXTT0=
EXTT1=
EXTT2=
EXTT3=
EXTT4=
EXTT5=
EXTT6=
EXTT7=
EXTT8=
EXTT9=
EXTT10=
PLAYORDER=
